<mxfile host="app.diagrams.net" modified="2023-09-01T15:55:18.598Z" agent="Mozilla/5.0 (Windows NT 10.0; Win64; x64) AppleWebKit/537.36 (KHTML, like Gecko) Chrome/116.0.0.0 Safari/537.36" version="21.7.1" etag="_M-n6gwF8EDbdgn5b7vX" type="github">
  <diagram name="PÃ¡gina-1" id="UDvJQx8Sg2H3VvqBLDTz">
    <mxGraphModel>
      <root>
        <mxCell id="0" />
        <mxCell id="1" parent="0" />
      </root>
    </mxGraphModel>
  </diagram>
</mxfile>
